<svg width="18" height="16" viewBox="0 0 18 16" fill="none" xmlns="http://www.w3.org/2000/svg">
<path d="M16 12C16 12.5523 15.5523 13 15 13H3C2.44772 13 2 12.5523 2 12V6C2 5.44772 2.44772 5 3 5H4.17157C4.96722 5 5.73028 4.68393 6.29289 4.12132L7.12132 3.29289C7.30886 3.10536 7.56321 3 7.82843 3H10.1716C10.4368 3 10.6911 3.10536 10.8787 3.29289L11.7071 4.12132C12.2697 4.68393 13.0328 5 13.8284 5H15C15.5523 5 16 5.44772 16 6V12ZM3 4C1.89543 4 1 4.89543 1 6V12C1 13.1046 1.89543 14 3 14H15C16.1046 14 17 13.1046 17 12V6C17 4.89543 16.1046 4 15 4H13.8284C13.298 4 12.7893 3.78929 12.4142 3.41421L11.5858 2.58579C11.2107 2.21071 10.702 2 10.1716 2H7.82843C7.29799 2 6.78929 2.21071 6.41421 2.58579L5.58579 3.41421C5.21071 3.78929 4.70201 4 4.17157 4H3Z" fill="black"/>
<path d="M9 11C7.61929 11 6.5 9.88071 6.5 8.5C6.5 7.11929 7.61929 6 9 6C10.3807 6 11.5 7.11929 11.5 8.5C11.5 9.88071 10.3807 11 9 11ZM9 12C10.933 12 12.5 10.433 12.5 8.5C12.5 6.567 10.933 5 9 5C7.067 5 5.5 6.567 5.5 8.5C5.5 10.433 7.067 12 9 12Z" fill="black"/>
<path d="M4 6.5C4 6.77614 3.77614 7 3.5 7C3.22386 7 3 6.77614 3 6.5C3 6.22386 3.22386 6 3.5 6C3.77614 6 4 6.22386 4 6.5Z" fill="black"/>
<rect x="0.602905" y="1" width="22.1681" height="0.947257" rx="0.473629" transform="rotate(39.5308 0.602905 1)" fill="black"/>
</svg>
